<svg width="124" height="29" viewBox="0 0 124 29" fill="none" xmlns="http://www.w3.org/2000/svg">
<path d="M0.275568 1.81818H7.10227L14.3125 19.4091H14.6193L21.8295 1.81818H28.6562V28H23.2869V10.9588H23.0696L16.294 27.8722H12.6378L5.86222 10.8949H5.64489V28H0.275568V1.81818ZM41.9869 28.3835C40.0011 28.3835 38.2837 27.9616 36.8349 27.1179C35.3945 26.2656 34.2823 25.081 33.4982 23.5639C32.7141 22.0384 32.3221 20.2699 32.3221 18.2585C32.3221 16.2301 32.7141 14.4574 33.4982 12.9403C34.2823 11.4148 35.3945 10.2301 36.8349 9.38636C38.2837 8.53409 40.0011 8.10795 41.9869 8.10795C43.9727 8.10795 45.6857 8.53409 47.1261 9.38636C48.5749 10.2301 49.6914 11.4148 50.4755 12.9403C51.2596 14.4574 51.6516 16.2301 51.6516 18.2585C51.6516 20.2699 51.2596 22.0384 50.4755 23.5639C49.6914 25.081 48.5749 26.2656 47.1261 27.1179C45.6857 27.9616 43.9727 28.3835 41.9869 28.3835ZM42.0124 24.1648C42.9158 24.1648 43.6701 23.9091 44.2752 23.3977C44.8803 22.8778 45.3363 22.1705 45.6431 21.2756C45.9585 20.3807 46.1161 19.3622 46.1161 18.2202C46.1161 17.0781 45.9585 16.0597 45.6431 15.1648C45.3363 14.2699 44.8803 13.5625 44.2752 13.0426C43.6701 12.5227 42.9158 12.2628 42.0124 12.2628C41.1005 12.2628 40.3335 12.5227 39.7113 13.0426C39.0977 13.5625 38.6332 14.2699 38.3178 15.1648C38.011 16.0597 37.8576 17.0781 37.8576 18.2202C37.8576 19.3622 38.011 20.3807 38.3178 21.2756C38.6332 22.1705 39.0977 22.8778 39.7113 23.3977C40.3335 23.9091 41.1005 24.1648 42.0124 24.1648ZM72.8668 8.36364L66.0018 28H59.8654L53.0004 8.36364H58.7532L62.8313 22.4134H63.0359L67.1012 8.36364H72.8668ZM94.4112 28.3835C92.3913 28.3835 90.6527 27.9744 89.1953 27.1562C87.7464 26.3295 86.63 25.1619 85.8459 23.6534C85.0618 22.1364 84.6697 20.3423 84.6697 18.2713C84.6697 16.2514 85.0618 14.4787 85.8459 12.9531C86.63 11.4276 87.7337 10.2386 89.157 9.38636C90.5888 8.53409 92.2678 8.10795 94.1939 8.10795C95.4893 8.10795 96.6953 8.31676 97.8118 8.73438C98.9368 9.14347 99.9169 9.76136 100.752 10.5881C101.596 11.4148 102.252 12.4545 102.721 13.7074C103.19 14.9517 103.424 16.4091 103.424 18.0795V19.5753H86.843V16.2003H98.2976C98.2976 15.4162 98.1271 14.7216 97.7862 14.1165C97.4453 13.5114 96.9723 13.0384 96.3672 12.6974C95.7706 12.348 95.076 12.1733 94.2834 12.1733C93.4567 12.1733 92.7237 12.3651 92.0845 12.7486C91.4538 13.1236 90.9595 13.6307 90.6016 14.2699C90.2436 14.9006 90.0604 15.6037 90.0518 16.3793V19.5881C90.0518 20.5597 90.2308 21.3991 90.5888 22.1065C90.9553 22.8139 91.4709 23.3594 92.1357 23.7429C92.8004 24.1264 93.5888 24.3182 94.5007 24.3182C95.1058 24.3182 95.6598 24.233 96.1626 24.0625C96.6655 23.892 97.0959 23.6364 97.4538 23.2955C97.8118 22.9545 98.0845 22.5369 98.272 22.0426L103.309 22.375C103.053 23.5852 102.529 24.642 101.737 25.5455C100.952 26.4403 99.9382 27.1392 98.6939 27.642C97.4581 28.1364 96.0305 28.3835 94.4112 28.3835ZM123.316 13.9631L118.33 14.2699C118.245 13.8437 118.062 13.4602 117.781 13.1193C117.499 12.7699 117.129 12.4929 116.668 12.2884C116.217 12.0753 115.675 11.9688 115.045 11.9688C114.201 11.9688 113.489 12.1477 112.91 12.5057C112.33 12.8551 112.04 13.3239 112.04 13.9119C112.04 14.3807 112.228 14.777 112.603 15.1009C112.978 15.4247 113.621 15.6847 114.533 15.8807L118.087 16.5966C119.996 16.9886 121.42 17.6193 122.357 18.4886C123.295 19.358 123.763 20.5 123.763 21.9148C123.763 23.2017 123.384 24.331 122.626 25.3026C121.876 26.2741 120.844 27.0327 119.532 27.5781C118.228 28.1151 116.724 28.3835 115.019 28.3835C112.42 28.3835 110.349 27.8423 108.806 26.7599C107.272 25.669 106.373 24.1861 106.109 22.3111L111.465 22.0298C111.627 22.8224 112.019 23.4276 112.641 23.8452C113.263 24.2543 114.06 24.4588 115.032 24.4588C115.987 24.4588 116.754 24.2756 117.333 23.9091C117.921 23.5341 118.219 23.0526 118.228 22.4645C118.219 21.9702 118.011 21.5653 117.602 21.25C117.192 20.9261 116.562 20.679 115.71 20.5085L112.309 19.831C110.391 19.4474 108.964 18.7827 108.026 17.8366C107.097 16.8906 106.633 15.6847 106.633 14.2188C106.633 12.9574 106.974 11.8707 107.656 10.9588C108.346 10.0469 109.313 9.34375 110.558 8.84943C111.81 8.35511 113.276 8.10795 114.955 8.10795C117.435 8.10795 119.387 8.6321 120.81 9.6804C122.242 10.7287 123.077 12.1562 123.316 13.9631Z" fill="#E5E6EB"/>
<path d="M75.6538 28V8.36364H81.0998V28H75.6538ZM78.3896 5.83239C77.5799 5.83239 76.8853 5.56392 76.3058 5.02699C75.7347 4.48153 75.4492 3.82954 75.4492 3.07102C75.4492 2.32102 75.7347 1.67756 76.3058 1.14062C76.8853 0.59517 77.5799 0.322442 78.3896 0.322442C79.1992 0.322442 79.8896 0.59517 80.4606 1.14062C81.0401 1.67756 81.3299 2.32102 81.3299 3.07102C81.3299 3.82954 81.0401 4.48153 80.4606 5.02699C79.8896 5.56392 79.1992 5.83239 78.3896 5.83239Z" fill="#D32125"/>
</svg>
